<?xml version="1.0" encoding="utf-8"?>
<!-- Generator: Adobe Illustrator 24.3.0, SVG Export Plug-In . SVG Version: 6.00 Build 0)  -->
<svg version="1.1" id="Layer_1" xmlns="http://www.w3.org/2000/svg" xmlns:xlink="http://www.w3.org/1999/xlink" x="0px" y="0px"
	 viewBox="0 0 1000 350" style="enable-background:new 0 0 1000 350;" xml:space="preserve">
<style type="text/css">
	.st0{fill:#007BFF;}
</style>
<g>
	<path class="st0" d="M158.8,269.9c-14.9,7.3-34.3,11-58.2,11c-30.8,0-55.3-9.2-73.4-27.7C9,234.7,0,210.1,0,179.4
		c0-32.3,10.1-58.8,30.3-79.3c20.2-20.6,46.3-30.8,78.3-30.8c20,0,36.7,2.6,50.2,7.8v42.1c-13.8-8.1-29.5-12.2-47-12.2
		c-20,0-36,6.4-47.9,19.2c-12,12.8-18,29.5-18,50.1c0,20.1,5.7,36.2,17,48.5c11.4,12.2,26.7,18.4,46.1,18.4
		c18.2,0,34.8-4.4,49.8-13.2V269.9z"/>
	<path class="st0" d="M178.6,177.7c0-32.1,9.4-58.1,28.1-78.3c18.7-20.1,43.4-30.2,74.2-30.2c29.2,0,52.8,9.7,70.6,29.2
		c17.8,19.5,26.7,44.5,26.7,75c0,31.9-9.3,57.7-27.8,77.6c-18.5,19.9-42.8,29.8-72.8,29.8c-29.3,0-53.1-9.6-71.5-28.9
		C187.7,232.7,178.6,208,178.6,177.7z M224.4,175.3c0,19.9,4.8,36.2,14.4,48.8c9.6,12.6,22.8,19,39.5,19c17.1,0,30.4-6.1,39.9-18.2
		c9.5-12.1,14.3-28.4,14.3-48.8c0-21.3-4.6-38.1-13.9-50.5c-9.2-12.4-22.3-18.6-39.1-18.6c-17.1,0-30.5,6.3-40.4,19
		C229.3,138.7,224.4,155.1,224.4,175.3z"/>
	<path class="st0" d="M581.6,277.3h-50.2L499.3,224c-6.6-11-12-18.1-16.2-21.3c-4.2-3.2-8.7-4.8-13.5-4.8h-13.2v79.2h-43.6V72.7
		h71.7c48.7,0,73,18.5,73,55.5c0,13.9-4.1,25.8-12.2,35.8c-8.1,10-19.4,17-33.6,21v0.5c9.4,3.2,19.9,13.6,31.3,31.2L581.6,277.3z
		 M456.3,105.8v58.9h21.4c10.2,0,18.4-3,24.6-8.9c6.2-5.9,9.3-13.4,9.3-22.3c0-18.5-11.1-27.7-33.2-27.7H456.3z"/>
	<path class="st0" d="M645.1,72.7v204.6h-43.6V72.7H645.1z"/>
	<path class="st0" d="M681.9,258.1c0-6.6,2.5-12,7.5-16.2c5-4.2,11-6.3,18-6.3c7,0,13,2.2,17.8,6.5c4.8,4.3,7.3,9.7,7.3,16.1
		c0,6.8-2.4,12.3-7.3,16.4c-4.8,4.2-11,6.3-18.4,6.3c-6.9,0-12.7-2.2-17.6-6.5C684.4,270.1,681.9,264.6,681.9,258.1z"/>
	<path class="st0" d="M956.9,277.3V153.1c0-11.4,0.6-25.8,1.7-43.2h-1.1c-2.6,13.1-4.8,21.9-6.3,26.3l-50.5,141.1h-34.7L815,137.5
		c-1.2-3.3-3.4-12.5-6.5-27.6h-1.2c1.1,17.2,1.7,34.4,1.7,51.6v115.7h-39.4V72.7H833l44.1,123.6c3.7,10.2,6.2,19.8,7.5,28.8h0.9
		c2.7-11.2,5.5-20.9,8.5-29.1l44.2-123.4h61.7v204.6H956.9z"/>
</g>
</svg>
